<mxfile host="app.diagrams.net" agent="Mozilla/5.0 (Windows NT 10.0; Win64; x64) AppleWebKit/537.36 (KHTML, like Gecko) Chrome/131.0.0.0 Safari/537.36" version="25.0.3">
  <diagram name="第 1 页" id="Ilb5zPqABv0uuvkL8O6w">
    <mxGraphModel dx="880" dy="444" grid="1" gridSize="10" guides="1" tooltips="1" connect="1" arrows="1" fold="1" page="1" pageScale="1" pageWidth="827" pageHeight="1169" math="0" shadow="0">
      <root>
        <mxCell id="0" />
        <mxCell id="1" parent="0" />
        <mxCell id="ELhZxJQwEEymfxVePS4r-1" value="原理" style="rounded=1;whiteSpace=wrap;html=1;fillColor=#0050ef;fontColor=#ffffff;strokeColor=#001DBC;" vertex="1" parent="1">
          <mxGeometry x="240" y="360" width="80" height="80" as="geometry" />
        </mxCell>
        <mxCell id="ELhZxJQwEEymfxVePS4r-2" value="&lt;font style=&quot;font-size: 13px; background-color: rgb(255, 255, 51);&quot;&gt;&lt;span style=&quot;color: rgb(5, 7, 59); font-family: -apple-system, BlinkMacSystemFont, &amp;quot;Segoe UI&amp;quot;, Roboto, Ubuntu, &amp;quot;Helvetica Neue&amp;quot;, Helvetica, Arial, &amp;quot;PingFang SC&amp;quot;, &amp;quot;Hiragino Sans GB&amp;quot;, &amp;quot;Microsoft YaHei UI&amp;quot;, &amp;quot;Microsoft YaHei&amp;quot;, &amp;quot;Source Han Sans CN&amp;quot;, sans-serif, &amp;quot;Apple Color Emoji&amp;quot;, &amp;quot;Segoe UI Emoji&amp;quot;; text-align: left;&quot;&gt;HTTP（Hypertext Transfer Protocol）&lt;/span&gt;&lt;span style=&quot;color: rgb(5, 7, 59); font-family: -apple-system, BlinkMacSystemFont, &amp;quot;Segoe UI&amp;quot;, Roboto, Ubuntu, &amp;quot;Helvetica Neue&amp;quot;, Helvetica, Arial, &amp;quot;PingFang SC&amp;quot;, &amp;quot;Hiragino Sans GB&amp;quot;, &amp;quot;Microsoft YaHei UI&amp;quot;, &amp;quot;Microsoft YaHei&amp;quot;, &amp;quot;Source Han Sans CN&amp;quot;, sans-serif, &amp;quot;Apple Color Emoji&amp;quot;, &amp;quot;Segoe UI Emoji&amp;quot;; text-align: left;&quot;&gt;是一种应用层协议，用于在Web浏览器和Web服务器之间传输超文本。它基于请求-响应模型，即客户端发送HTTP请求，服务器接收并返回HTTP响应。&lt;/span&gt;&lt;/font&gt;" style="text;html=1;align=center;verticalAlign=middle;whiteSpace=wrap;rounded=0;fillColor=#a20025;fontColor=#ffffff;strokeColor=#6F0000;" vertex="1" parent="1">
          <mxGeometry x="360" y="360" width="470" height="80" as="geometry" />
        </mxCell>
        <mxCell id="ELhZxJQwEEymfxVePS4r-4" value="特点" style="rounded=1;whiteSpace=wrap;html=1;fillColor=#0050ef;fontColor=#ffffff;strokeColor=#001DBC;" vertex="1" parent="1">
          <mxGeometry x="240" y="600" width="80" height="80" as="geometry" />
        </mxCell>
        <mxCell id="ELhZxJQwEEymfxVePS4r-5" value="&lt;ul style=&quot;box-sizing: border-box; padding: 0px 0px 0px 30px; -webkit-font-smoothing: antialiased; list-style-position: outside; list-style-image: none; margin: 14px 0px 0px -10px; scrollbar-width: none; font-family: -apple-system, BlinkMacSystemFont, &amp;quot;Segoe UI&amp;quot;, Roboto, Ubuntu, &amp;quot;Helvetica Neue&amp;quot;, Helvetica, Arial, &amp;quot;PingFang SC&amp;quot;, &amp;quot;Hiragino Sans GB&amp;quot;, &amp;quot;Microsoft YaHei UI&amp;quot;, &amp;quot;Microsoft YaHei&amp;quot;, &amp;quot;Source Han Sans CN&amp;quot;, sans-serif, &amp;quot;Apple Color Emoji&amp;quot;, &amp;quot;Segoe UI Emoji&amp;quot;; line-height: 1.7; color: rgb(5, 7, 59); text-align: left;&quot;&gt;&lt;li style=&quot;box-sizing: border-box; padding: 0px; -webkit-font-smoothing: antialiased; list-style: none; margin: 6px 0px 0px; scrollbar-width: none; font-family: PingFang-SC-Regular; line-height: 1.7; position: relative;&quot;&gt;&lt;font style=&quot;font-size: 13px; background-color: rgb(255, 255, 51);&quot;&gt;是无状态的协议，每个请求都是相互独立的，服务器不会保留客户端的任何状态信息。&lt;/font&gt;&lt;/li&gt;&lt;/ul&gt;" style="text;html=1;align=center;verticalAlign=middle;whiteSpace=wrap;rounded=0;fillColor=#a20025;fontColor=#ffffff;strokeColor=#6F0000;" vertex="1" parent="1">
          <mxGeometry x="360" y="600" width="520" height="40" as="geometry" />
        </mxCell>
        <mxCell id="ELhZxJQwEEymfxVePS4r-6" value="&lt;ul style=&quot;box-sizing: border-box; padding: 0px 0px 0px 30px; -webkit-font-smoothing: antialiased; list-style-position: outside; list-style-image: none; margin: 14px 0px 0px -10px; scrollbar-width: none; font-family: -apple-system, BlinkMacSystemFont, &amp;quot;Segoe UI&amp;quot;, Roboto, Ubuntu, &amp;quot;Helvetica Neue&amp;quot;, Helvetica, Arial, &amp;quot;PingFang SC&amp;quot;, &amp;quot;Hiragino Sans GB&amp;quot;, &amp;quot;Microsoft YaHei UI&amp;quot;, &amp;quot;Microsoft YaHei&amp;quot;, &amp;quot;Source Han Sans CN&amp;quot;, sans-serif, &amp;quot;Apple Color Emoji&amp;quot;, &amp;quot;Segoe UI Emoji&amp;quot;; line-height: 1.7; color: rgb(5, 7, 59); text-align: left;&quot;&gt;&lt;li style=&quot;box-sizing: border-box; padding: 0px; -webkit-font-smoothing: antialiased; list-style: none; margin: 0px; scrollbar-width: none; font-family: PingFang-SC-Regular; line-height: 1.7; position: relative;&quot;&gt;&lt;font style=&quot;font-size: 13px; background-color: rgb(255, 255, 51);&quot;&gt;使用TCP作为传输层协议，提供可靠的数据传输。&lt;/font&gt;&lt;/li&gt;&lt;/ul&gt;" style="text;html=1;align=center;verticalAlign=middle;whiteSpace=wrap;rounded=0;fillColor=#a20025;fontColor=#ffffff;strokeColor=#6F0000;" vertex="1" parent="1">
          <mxGeometry x="360" y="520" width="320" height="40" as="geometry" />
        </mxCell>
        <mxCell id="ELhZxJQwEEymfxVePS4r-7" value="&lt;span style=&quot;color: rgb(5, 7, 59); font-family: -apple-system, BlinkMacSystemFont, &amp;quot;Segoe UI&amp;quot;, Roboto, Ubuntu, &amp;quot;Helvetica Neue&amp;quot;, Helvetica, Arial, &amp;quot;PingFang SC&amp;quot;, &amp;quot;Hiragino Sans GB&amp;quot;, &amp;quot;Microsoft YaHei UI&amp;quot;, &amp;quot;Microsoft YaHei&amp;quot;, &amp;quot;Source Han Sans CN&amp;quot;, sans-serif, &amp;quot;Apple Color Emoji&amp;quot;, &amp;quot;Segoe UI Emoji&amp;quot;; text-align: left; background-color: rgb(255, 255, 51);&quot;&gt;&lt;font style=&quot;font-size: 13px;&quot;&gt;基于文本的协议，使用ASCII码进行数据传输，并且使用报文的形式组织数据&lt;/font&gt;&lt;/span&gt;" style="text;html=1;align=center;verticalAlign=middle;whiteSpace=wrap;rounded=0;fillColor=#a20025;fontColor=#ffffff;strokeColor=#6F0000;" vertex="1" parent="1">
          <mxGeometry x="360" y="680" width="480" height="40" as="geometry" />
        </mxCell>
        <mxCell id="ELhZxJQwEEymfxVePS4r-8" value="&lt;ul style=&quot;box-sizing: border-box; padding: 0px 0px 0px 30px; -webkit-font-smoothing: antialiased; list-style-position: outside; list-style-image: none; margin: 14px 0px 0px -10px; scrollbar-width: none; font-family: -apple-system, BlinkMacSystemFont, &amp;quot;Segoe UI&amp;quot;, Roboto, Ubuntu, &amp;quot;Helvetica Neue&amp;quot;, Helvetica, Arial, &amp;quot;PingFang SC&amp;quot;, &amp;quot;Hiragino Sans GB&amp;quot;, &amp;quot;Microsoft YaHei UI&amp;quot;, &amp;quot;Microsoft YaHei&amp;quot;, &amp;quot;Source Han Sans CN&amp;quot;, sans-serif, &amp;quot;Apple Color Emoji&amp;quot;, &amp;quot;Segoe UI Emoji&amp;quot;; line-height: 1.7; color: rgb(5, 7, 59); text-align: left;&quot;&gt;&lt;li style=&quot;box-sizing: border-box; padding: 0px; -webkit-font-smoothing: antialiased; list-style: none; margin: 6px 0px 0px; scrollbar-width: none; font-family: PingFang-SC-Regular; line-height: 1.7; position: relative;&quot;&gt;&lt;font style=&quot;font-size: 13px; background-color: rgb(255, 255, 51);&quot;&gt;支持缓存机制，可以提高网页加载速度，减轻服务器负担。&lt;/font&gt;&lt;/li&gt;&lt;/ul&gt;" style="text;html=1;align=center;verticalAlign=middle;whiteSpace=wrap;rounded=0;fillColor=#a20025;fontColor=#ffffff;strokeColor=#6F0000;" vertex="1" parent="1">
          <mxGeometry x="360" y="760" width="370" height="40" as="geometry" />
        </mxCell>
      </root>
    </mxGraphModel>
  </diagram>
</mxfile>
